<svg width="330" height="50" viewBox="0 0 330 50" fill="none" xmlns="http://www.w3.org/2000/svg">
<g clip-path="url(#clip0)">
<path d="M22.1423 36.1718C20.5035 38.1688 18.0263 39.4122 15.2443 39.4122C10.328 39.4122 6.32637 35.4183 6.32637 30.52C6.32637 25.6217 10.328 21.9292 15.2443 21.9292C17.9501 21.9292 20.3892 23.1349 22.0279 25.0565L25.9152 21.1379C23.2094 18.0106 19.2459 16.1266 14.7869 16.1266C6.63125 16.1266 0 22.7581 0 30.9345C0 39.1108 6.63125 45.4409 14.7869 45.4409C19.2459 45.4409 23.2475 43.4816 25.9533 40.3542L22.1423 36.1718Z" fill="white"/>
<path d="M34.452 17.9352H28.6592V45.4408H34.452V17.9352Z" fill="white"/>
<path d="M44.3227 11.9819L50.1917 8.36472V17.483H56.0607V22.7581H50.1917V38.3572C50.1917 38.3572 51.3731 42.9163 57.3946 38.3572L56.2894 43.783C56.2894 43.783 54.3458 45.5539 51.4494 45.4032C48.5529 45.2524 45.1992 44.4612 44.3227 39.2992V22.8711H39.4826V17.483H44.3227V11.9819Z" fill="white"/>
<path d="M67.6083 17.9352H61.8155V45.4408H67.6083V17.9352Z" fill="white"/>
<path d="M90.4365 16.1643C85.2916 16.2397 82.8525 19.6308 82.8525 19.6308V8.02563L76.9835 11.4167V45.4409H82.7763V42.1251C85.5965 45.8176 90.2078 45.4409 90.2078 45.4409C94.743 45.5916 101.793 41.8237 102.022 30.7084C102.251 19.5554 95.5433 16.0889 90.4365 16.1643ZM89.4837 40.3542C85.5965 40.3542 82.5857 36.3979 82.5857 36.3979V25.0942C86.5873 20.6858 89.4837 21.5524 89.4837 21.5524C92.7994 21.477 96.3437 24.3406 96.2674 30.7084C96.2293 37.0384 93.4091 40.3542 89.4837 40.3542Z" fill="white"/>
<path d="M71.4574 12.6225C66.6936 5.50113 58.6141 0 48.0575 0C40.321 0 33.3468 3.12736 28.4305 8.17634C28.4305 8.17634 25.9914 10.7762 24.81 12.6225H31.5556C35.9002 7.83723 40.8927 5.16202 48.1337 5.16202C55.6034 5.16202 61.9297 9.04295 65.2835 12.6225H71.4574Z" fill="#DF040B"/>
<path d="M116.58 16.6164C116.58 16.6164 111.817 16.5787 106.977 19.254L109.263 23.2102C109.263 23.2102 112.998 21.1756 116.695 21.2133C120.849 21.2886 122.335 25.0188 122.335 25.0188V28.5607C122.335 28.5607 120.544 26.8651 115.856 26.9028C111.169 26.9405 104.194 28.8621 104.271 36.1341C104.271 36.1341 104.118 45.4785 114.599 45.4032C114.599 45.4032 119.363 45.7046 122.335 42.0874V45.4032H128.052V24.7928C128.128 24.7928 127.518 16.7671 116.58 16.6164ZM122.411 37.4152C122.411 37.4152 118.829 41.0324 115.056 40.731C111.283 40.4295 109.721 38.0181 109.644 35.8704C109.568 33.7227 111.283 31.575 116.047 31.575C120.811 31.575 122.449 33.2329 122.449 33.2329V37.4152H122.411Z" fill="white"/>
<path d="M133.044 45.4409H138.875V26.9405C138.875 26.9405 138.685 21.1379 144.706 21.1379C150.766 21.1379 150.651 26.9405 150.651 26.9405V45.4409H156.406V25.7348C156.406 25.7348 156.216 16.0513 146.612 16.1266C146.612 16.1266 140.666 15.7498 139.066 19.367V16.6164H133.006V45.4409H133.044Z" fill="white"/>
<path d="M171.765 16.6164C171.765 16.6164 167.001 16.5787 162.161 19.254L164.447 23.2102C164.447 23.2102 168.182 21.1756 171.879 21.2133C176.033 21.2886 177.519 25.0188 177.519 25.0188V28.5607C177.519 28.5607 175.728 26.8651 171.041 26.9028C166.353 26.9405 159.379 28.8621 159.455 36.1341C159.455 36.1341 159.302 45.4785 169.783 45.4032C169.783 45.4032 174.547 45.7046 177.519 42.0874V45.4032H183.236V24.7928C183.274 24.7928 182.702 16.7671 171.765 16.6164ZM177.557 37.4152C177.557 37.4152 173.975 41.0324 170.202 40.731C166.429 40.4295 164.867 38.0181 164.79 35.8704C164.714 33.7227 166.429 31.575 171.193 31.575C175.957 31.575 177.596 33.2329 177.596 33.2329V37.4152H177.557Z" fill="white"/>
<path d="M209.075 20.2336C206.903 15.7498 202.825 16.1266 201.491 16.1266C201.491 16.1266 195.736 15.7498 194.212 19.367V16.6164H188.343V45.4408H194.021V26.9405C194.021 26.9405 193.831 21.1379 199.7 21.1379C202.558 21.1379 205.15 23.2479 205.454 26.3376V45.4408H210.866V25.7347C210.866 25.7347 211.171 21.1002 216.049 21.1379C221.918 21.1756 221.804 26.9405 221.804 26.9405V45.4408H227.368V25.7347C227.368 25.7347 227.178 16.0512 217.879 16.1266C217.879 16.1266 211.095 15.373 209.075 20.2336Z" fill="white"/>
<path d="M256.218 32.5923V28.2216C256.218 28.2216 255.265 16.1643 244.251 16.2396C233.237 16.315 230.95 25.2072 230.95 29.8417C230.95 34.4763 232.97 45.1394 243.603 45.1394C243.603 45.1394 250.387 45.2524 253.893 41.5976L250.882 38.0181C250.882 38.0181 249.244 40.0904 243.603 40.1658C239.297 40.2035 236.172 35.6066 236.781 32.5923H256.218ZM243.794 21.1756C250.577 21.1002 250.844 28.2216 250.844 28.2216H236.705C236.743 28.2216 237.048 21.2509 243.794 21.1756Z" fill="white"/>
<path d="M256.789 16.9179H262.544L268.337 26.3376L273.825 16.9179H280.075L271.843 30.7084L280.075 44.6873H273.825L268.261 34.4763L262.544 44.6873H256.218L264.983 30.7084L256.789 16.9179Z" fill="white"/>
<path d="M327.561 26.639C326.608 26.3753 324.436 25.9608 322.416 25.5463C322.454 25.5087 322.492 25.5087 322.492 25.471C324.055 24.0392 327.065 18.3873 327.065 18.3873C327.713 17.0309 326.303 14.7702 326.303 14.7702L326.227 14.6571C323.712 11.0399 319.901 8.17633 315.975 6.4431C315.975 6.4431 313.727 6.06631 312.545 7.83722C311.974 8.70384 310.792 10.7008 309.725 12.5471C309.687 12.321 309.649 12.0949 309.611 12.0196C308.734 10.098 304.313 5.46344 304.313 5.46344C303.208 4.44611 300.579 5.0113 300.579 5.0113L300.426 5.04898C296.158 6.21702 292.194 8.89223 289.298 12.0196C289.298 12.0196 288.193 14.0166 289.526 15.6744C290.174 16.4657 291.699 18.1989 293.109 19.8191C292.956 19.7815 292.766 19.7815 292.69 19.7815C290.594 20.0452 284.801 22.9088 284.801 22.9088C283.505 23.6247 283.314 26.2999 283.314 26.2999V26.4506C283.2 30.8591 284.648 35.3429 286.821 39.0354C286.821 39.0354 288.421 40.6556 290.441 39.8643C291.394 39.4876 293.528 38.5456 295.472 37.679C295.091 40.0527 295.624 45.6669 295.624 45.6669C295.853 47.1364 298.254 48.3044 298.254 48.3044L298.406 48.3798C302.484 50.0753 307.286 50.4145 311.516 49.7362C311.516 49.7362 313.651 48.8319 313.612 46.7219C313.612 45.7046 313.498 43.4062 313.384 41.2961C313.536 41.4469 313.689 41.5976 313.803 41.6353C315.67 42.6526 322.035 43.7076 322.035 43.7076C323.521 43.896 325.274 41.8237 325.274 41.8237L325.35 41.7106C328.056 38.2065 329.543 33.7227 330 29.5026C330 29.4273 329.657 27.1665 327.561 26.639ZM297.758 15.7498C300.274 13.8282 303.399 12.6978 306.829 12.6978C307.591 12.6978 308.887 12.8485 309.458 12.9239C308.391 14.7702 307.477 16.3527 307.477 16.3527C307.477 16.3527 306.867 17.1816 306.791 18.2743C306.791 17.8975 306.638 17.1439 305.457 16.4657C303.818 15.4861 302.027 17.1439 300.236 17.4454C298.444 17.7468 297.263 17.4077 297.758 15.7498ZM295.815 24.9812C294.405 26.2622 295.472 28.4099 295.243 30.1809C295.014 31.9518 294.328 33.0068 292.842 32.0271V32.0648C291.737 29.1258 291.546 25.8101 292.537 22.6074C292.728 21.9292 293.223 20.8365 293.49 20.2713C294.862 21.8161 296.043 23.1349 296.043 23.1349C296.043 23.1349 296.539 23.7754 297.301 24.2276C296.958 24.2653 296.425 24.4536 295.815 24.9812ZM307.134 41.5599H307.172C304.009 41.5222 300.807 40.5049 298.139 38.3949C297.72 38.0934 297.187 37.5283 296.729 37.1138C298.292 36.3979 299.511 35.8327 299.511 35.8327C299.511 35.8327 300.807 35.3805 301.493 34.2879C301.303 34.6646 301.188 35.3052 301.569 36.2472C302.255 38.0181 304.695 37.792 306.257 38.6586C307.858 39.5252 308.62 40.5426 307.134 41.5599ZM311.859 33.8357C311.478 33.572 311.021 33.3459 310.411 33.2705C310.411 33.2705 303.932 32.2909 301.874 33.8357C301.874 33.8357 301.76 33.9111 301.646 34.0995C301.951 33.572 302.065 32.8561 301.874 32.0271C301.874 32.0271 300.617 26.413 298.597 24.642C299.168 24.7174 299.778 24.6044 300.464 24.1899C300.464 24.1899 306.181 20.9872 306.791 18.5004C306.791 18.5004 306.791 18.4627 306.791 18.425C306.752 19.1786 306.981 20.0452 307.858 20.7611C307.858 20.7611 312.202 24.6044 314.87 24.8681C314.375 25.1319 313.955 25.584 313.689 26.2999C313.651 26.3376 311.554 31.1605 311.859 33.8357ZM315.594 39.3745C315.022 39.8267 313.917 40.4295 313.384 40.731C313.269 38.6209 313.155 36.8123 313.155 36.8123C313.155 36.8123 313.193 36.1718 312.926 35.4182C313.269 35.5313 313.727 35.6443 314.375 35.5689C316.28 35.3806 316.699 32.9691 317.919 31.688C319.177 30.4069 320.32 29.9171 320.93 31.6127V31.575C320.129 34.5516 318.3 37.3399 315.594 39.3745ZM317.805 24.6044C317.805 24.6044 317.042 24.3783 316.166 24.4913C316.433 24.2276 316.737 23.7754 316.89 23.0595C317.309 21.2133 315.137 20.0829 314.298 18.5004C313.46 16.9179 313.384 15.6744 315.175 15.6368L315.137 15.5991C317.766 17.3323 319.863 19.9322 320.968 23.1349C321.158 23.7377 321.387 24.7174 321.501 25.3579C319.481 24.9435 317.805 24.6044 317.805 24.6044Z" fill="#DF040B"/>
</g>
<defs>
<clipPath id="clip0">
<rect width="330" height="50" fill="white"/>
</clipPath>
</defs>
</svg>
